# xmcd
#
# Track frame offsets: 
#        150
#        15430
#        29600
#        44768
#        66541
#        81706
#        103551
#        126829
#        148200
#        161090
#        185195
#
# Disc length: 2507 seconds
#
# Revision: 0
# Processed by: cddbd v1.5.1PL0 Copyright (c) Steve Scherf et al.
# Submitted via: ExactAudioCopy v0.95a5
#
DISCID=ad09c90b
DTITLE=Boo Watson - Opening Moves
DYEAR=1999
DGENRE=R&B
TTITLE0=Just Come Back
TTITLE1=Northern Lights
TTITLE2=l'École Polytechnique 
TTITLE3=Sweetness and Light
TTITLE4=Kiss Your Fantasy
TTITLE5=Dr. Collins' Complaint
TTITLE6=Since You Went Away
TTITLE7=(Don't Say) You Don't Love Me
TTITLE8=The Sweetness
TTITLE9=(White Buffalo Calf) Pipe Carrier
TTITLE10=Bonus Laughter
EXTD=
EXTT0=
EXTT1=
EXTT2=
EXTT3=
EXTT4=
EXTT5=
EXTT6=
EXTT7=
EXTT8=
EXTT9=
EXTT10=
PLAYORDER=
